<mxfile host="app.diagrams.net" modified="2022-10-26T13:20:13.194Z" agent="5.0 (Windows NT 10.0; Win64; x64) AppleWebKit/537.36 (KHTML, like Gecko) Chrome/107.0.0.0 Safari/537.36" etag="BDA7SZDo3QYCGZ0r1J6Y" version="20.4.1" type="github">
  <diagram id="G-K_u4G-WFlKlN8Lp-H8" name="Page-1">
    <mxGraphModel dx="1422" dy="786" grid="1" gridSize="10" guides="1" tooltips="1" connect="1" arrows="1" fold="1" page="1" pageScale="1" pageWidth="850" pageHeight="1100" math="0" shadow="0">
      <root>
        <mxCell id="0" />
        <mxCell id="1" parent="0" />
        <mxCell id="s9PNMegPgblP23KJXuMv-2" value="" style="swimlane;startSize=0;" parent="1" vertex="1">
          <mxGeometry x="195" y="80" width="460" height="260" as="geometry" />
        </mxCell>
        <mxCell id="s9PNMegPgblP23KJXuMv-3" value="" style="rounded=0;whiteSpace=wrap;html=1;" parent="s9PNMegPgblP23KJXuMv-2" vertex="1">
          <mxGeometry x="15" y="40" width="125" height="200" as="geometry" />
        </mxCell>
        <mxCell id="s9PNMegPgblP23KJXuMv-4" value="" style="rounded=0;whiteSpace=wrap;html=1;" parent="s9PNMegPgblP23KJXuMv-2" vertex="1">
          <mxGeometry x="167.5" y="40" width="125" height="200" as="geometry" />
        </mxCell>
        <mxCell id="s9PNMegPgblP23KJXuMv-5" value="" style="rounded=0;whiteSpace=wrap;html=1;" parent="s9PNMegPgblP23KJXuMv-2" vertex="1">
          <mxGeometry x="315" y="40" width="125" height="200" as="geometry" />
        </mxCell>
        <mxCell id="s9PNMegPgblP23KJXuMv-10" style="edgeStyle=orthogonalEdgeStyle;rounded=0;orthogonalLoop=1;jettySize=auto;html=1;entryX=0.168;entryY=0;entryDx=0;entryDy=0;entryPerimeter=0;fontSize=24;" parent="s9PNMegPgblP23KJXuMv-2" source="s9PNMegPgblP23KJXuMv-6" target="s9PNMegPgblP23KJXuMv-9" edge="1">
          <mxGeometry relative="1" as="geometry" />
        </mxCell>
        <mxCell id="s9PNMegPgblP23KJXuMv-6" value="&lt;font style=&quot;font-size: 14px&quot;&gt;Running Process&lt;/font&gt;" style="rounded=1;whiteSpace=wrap;html=1;" parent="s9PNMegPgblP23KJXuMv-2" vertex="1">
          <mxGeometry x="26.25" y="50" width="102.5" height="50" as="geometry" />
        </mxCell>
        <mxCell id="s9PNMegPgblP23KJXuMv-11" style="edgeStyle=orthogonalEdgeStyle;rounded=0;orthogonalLoop=1;jettySize=auto;html=1;entryX=0.5;entryY=0;entryDx=0;entryDy=0;fontSize=24;" parent="s9PNMegPgblP23KJXuMv-2" source="s9PNMegPgblP23KJXuMv-7" target="s9PNMegPgblP23KJXuMv-9" edge="1">
          <mxGeometry relative="1" as="geometry" />
        </mxCell>
        <mxCell id="s9PNMegPgblP23KJXuMv-7" value="&lt;span&gt;&lt;font style=&quot;font-size: 14px&quot;&gt;Running Process&lt;/font&gt;&lt;/span&gt;" style="rounded=1;whiteSpace=wrap;html=1;" parent="s9PNMegPgblP23KJXuMv-2" vertex="1">
          <mxGeometry x="179" y="50" width="102.5" height="50" as="geometry" />
        </mxCell>
        <mxCell id="s9PNMegPgblP23KJXuMv-12" style="edgeStyle=orthogonalEdgeStyle;rounded=0;orthogonalLoop=1;jettySize=auto;html=1;entryX=0.819;entryY=0.017;entryDx=0;entryDy=0;entryPerimeter=0;fontSize=24;" parent="s9PNMegPgblP23KJXuMv-2" source="s9PNMegPgblP23KJXuMv-8" target="s9PNMegPgblP23KJXuMv-9" edge="1">
          <mxGeometry relative="1" as="geometry" />
        </mxCell>
        <mxCell id="s9PNMegPgblP23KJXuMv-8" value="&lt;span&gt;&lt;font style=&quot;font-size: 14px&quot;&gt;Running Process&lt;/font&gt;&lt;/span&gt;" style="rounded=1;whiteSpace=wrap;html=1;" parent="s9PNMegPgblP23KJXuMv-2" vertex="1">
          <mxGeometry x="326.25" y="50" width="102.5" height="50" as="geometry" />
        </mxCell>
        <mxCell id="s9PNMegPgblP23KJXuMv-9" value="&lt;font style=&quot;font-size: 24px&quot;&gt;Kernel&lt;/font&gt;" style="rounded=0;whiteSpace=wrap;html=1;fontSize=14;fillColor=#dae8fc;strokeColor=#6c8ebf;" parent="s9PNMegPgblP23KJXuMv-2" vertex="1">
          <mxGeometry x="0.25" y="150" width="460" height="60" as="geometry" />
        </mxCell>
        <mxCell id="s9PNMegPgblP23KJXuMv-17" style="edgeStyle=orthogonalEdgeStyle;rounded=0;orthogonalLoop=1;jettySize=auto;html=1;entryX=0.5;entryY=0;entryDx=0;entryDy=0;fontSize=24;strokeWidth=3;" parent="1" source="s9PNMegPgblP23KJXuMv-13" target="s9PNMegPgblP23KJXuMv-15" edge="1">
          <mxGeometry relative="1" as="geometry" />
        </mxCell>
        <mxCell id="s9PNMegPgblP23KJXuMv-13" value="Linux Virtual Machine" style="rounded=0;whiteSpace=wrap;html=1;fontSize=24;" parent="1" vertex="1">
          <mxGeometry x="195" y="340" width="460" height="60" as="geometry" />
        </mxCell>
        <mxCell id="s9PNMegPgblP23KJXuMv-18" style="edgeStyle=orthogonalEdgeStyle;rounded=0;orthogonalLoop=1;jettySize=auto;html=1;entryX=0.5;entryY=0;entryDx=0;entryDy=0;fontSize=24;strokeWidth=3;" parent="1" source="s9PNMegPgblP23KJXuMv-15" target="s9PNMegPgblP23KJXuMv-16" edge="1">
          <mxGeometry relative="1" as="geometry" />
        </mxCell>
        <mxCell id="s9PNMegPgblP23KJXuMv-15" value="Windows/MacOS" style="rounded=0;whiteSpace=wrap;html=1;fontSize=24;fillColor=#dae8fc;strokeColor=#6c8ebf;" parent="1" vertex="1">
          <mxGeometry x="195" y="440" width="460" height="60" as="geometry" />
        </mxCell>
        <mxCell id="s9PNMegPgblP23KJXuMv-16" value="Your computers hardware" style="rounded=0;whiteSpace=wrap;html=1;fontSize=24;fillColor=#d5e8d4;strokeColor=#82b366;" parent="1" vertex="1">
          <mxGeometry x="195" y="540" width="460" height="60" as="geometry" />
        </mxCell>
      </root>
    </mxGraphModel>
  </diagram>
</mxfile>
